HIERARCHY
ROOT pelvis
{
  OFFSET 0 100 0
  CHANNELS 6 Xposition Yposition Zposition Zrotation Xrotation Yrotation
  JOINT pelvis_right_femur
  {
    OFFSET -10.78128 -3.44521 -0.5502486
    CHANNELS 3 Zrotation Xrotation Yrotation
    JOINT right_femur_tibia
    {
      OFFSET -0.8047443 -44.0398 -0.1307829
      CHANNELS 3 Zrotation Xrotation Yrotation
      JOINT right_tibia_foot
      {
        OFFSET 3.006224 -47.83518 -5
        CHANNELS 3 Zrotation Xrotation Yrotation
        End Site
        {
          OFFSET 0 -5 15
        }
      }
    }
  }
  JOINT pelvis_left_femur
  {
    OFFSET 10.78128 -3.44521 -0.5502486
    CHANNELS 3 Zrotation Xrotation Yrotation
    JOINT left_femur_tibia
    {
      OFFSET 0.8047443 -44.0398 -0.1307829
      CHANNELS 3 Zrotation Xrotation Yrotation
      JOINT left_tibia_foot
      {
        OFFSET -4.370144 -48.10324 -4.275266
        CHANNELS 3 Zrotation Xrotation Yrotation
        End Site
        {
          OFFSET 0 -5 15
        }
      }
    }
  }
  JOINT pelvis_spine1
  {
    OFFSET 0 6.468898 -3.129235
    CHANNELS 3 Zrotation Xrotation Yrotation
    JOINT spine1
    {
      OFFSET 0 23.15396 4.99043
      CHANNELS 3 Zrotation Xrotation Yrotation
      JOINT spine2
      {
        OFFSET 0 20.79997 -5.064912
        CHANNELS 3 Zrotation Xrotation Yrotation
        JOINT neck
        {
          OFFSET 0 14.38658 9.616178
          CHANNELS 3 Zrotation Xrotation Yrotation
          End Site
          {
            OFFSET 0 20 0
          }
        }
      }
      JOINT right_manubrium
      {
        OFFSET -5.722621 16.35077 3.967754
        CHANNELS 3 Zrotation Xrotation Yrotation
        JOINT right_clavicle
        {
          OFFSET -13.16364 1.694482 -4.693211
          CHANNELS 3 Zrotation Xrotation Yrotation
          JOINT right_humerus
          {
            OFFSET -28.5034 -0.3100689 -2.792744
            CHANNELS 3 Zrotation Xrotation Yrotation
            JOINT right_radius
            {
              OFFSET -25.15693 0.02248979 -1.271978
              CHANNELS 3 Zrotation Xrotation Yrotation
              End Site
              {
                OFFSET -15 0 0
              }
            }
          }
        }
      }
      JOINT left_manubrium
      {
        OFFSET 5.722621 16.35077 3.967754
        CHANNELS 3 Zrotation Xrotation Yrotation
        JOINT left_clavicle
        {
          OFFSET 13.16364 1.694482 -4.693211
          CHANNELS 3 Zrotation Xrotation Yrotation
          JOINT left_humerus
          {
            OFFSET 29.39168 -1.063119 -2.237045
            CHANNELS 3 Zrotation Xrotation Yrotation
            JOINT left_radius
            {
              OFFSET 24.59957 -0.9528479 0.9047498
              CHANNELS 3 Zrotation Xrotation Yrotation
              End Site
              {
                OFFSET 15 -0 -0
              }
            }
          }
        }
      }
    }
  }
}
MOTION
Frames: 9
Frame Time: 0.0416666666667
-920.9338 105.379 -432.5418 8.364544 2.505057 102.4687 2.357944 13.67263 -3.115079 -0 20.18991 -0 -13.46346 -8.280713 2.040146 0.8343525 -16.7362 -7.099007 -0 16.789 -0 -0.02311104 -1.258248 17.1997 -0.456963 -1.985094 6.910121 -0.9954182 13.08039 -3.261659 0.1539279 21.898 6.779641 6.60061 -14.0099 3.737198 3.617814 -24.03318 12.28241 81.84837 25.9799 -7.02054 -0 0 23.67224 -24.64623 13.15875 11.98977 5.690576 -22.43131 -8.037762 -96.19842 7.954039 31.11689 -0 0 1.963019 12.82104 14.81214 -4.195135
-915.6072 105.3752 -435.0151 8.386669 2.429457 101.9548 2.357944 13.67263 -3.115079 -0 20.18991 -0 -13.46346 -8.280713 2.040146 0.8343525 -16.7362 -7.099007 -0 16.789 -0 -0.02311104 -1.258248 17.1997 -0.456963 -1.985094 6.910121 -0.9954182 13.08039 -3.261659 0.1539279 21.898 6.779641 6.60061 -14.0099 3.737198 3.617814 -24.03318 12.28241 81.84837 25.9799 -7.02054 -0 0 23.67224 -24.64623 13.15875 11.98977 5.690576 -22.43131 -8.037762 -96.19842 7.954039 31.11689 -0 0 1.963019 12.82104 14.81214 -4.195135
-910.2584 105.3715 -437.4399 8.408113 2.353663 101.4409 2.357944 13.67263 -3.115079 -0 20.18991 -0 -13.46346 -8.280713 2.040146 0.8343525 -16.7362 -7.099007 -0 16.789 -0 -0.02311104 -1.258248 17.1997 -0.456963 -1.985094 6.910121 -0.9954182 13.08039 -3.261659 0.1539279 21.898 6.779641 6.60061 -14.0099 3.737198 3.617814 -24.03318 12.28241 81.84837 25.9799 -7.02054 -0 0 23.67224 -24.64623 13.15875 11.98977 5.690576 -22.43131 -8.037762 -96.19842 7.954039 31.11689 -0 0 1.963019 12.82104 14.81214 -4.195135
-904.8878 105.3677 -439.8163 8.428874 2.277679 100.9271 2.357944 13.67263 -3.115079 -0 20.18991 -0 -13.46346 -8.280713 2.040146 0.8343525 -16.7362 -7.099007 -0 16.789 -0 -0.02311104 -1.258248 17.1997 -0.456963 -1.985094 6.910121 -0.9954182 13.08039 -3.261659 0.1539279 21.898 6.779641 6.60061 -14.0099 3.737198 3.617814 -24.03318 12.28241 81.84837 25.9799 -7.02054 -0 0 23.67224 -24.64623 13.15875 11.98977 5.690576 -22.43131 -8.037762 -96.19842 7.954039 31.11689 -0 0 1.963019 12.82104 14.81214 -4.195135
-899.496 105.364 -442.1438 8.448952 2.201512 100.4133 2.357944 13.67263 -3.115079 -0 20.18991 -0 -13.46346 -8.280713 2.040146 0.8343525 -16.7362 -7.099007 -0 16.789 -0 -0.02311104 -1.258248 17.1997 -0.456963 -1.985094 6.910121 -0.9954182 13.08039 -3.261659 0.1539279 21.898 6.779641 6.60061 -14.0099 3.737198 3.617814 -24.03318 12.28241 81.84837 25.9799 -7.02054 -0 0 23.67224 -24.64623 13.15875 11.98977 5.690576 -22.43131 -8.037762 -96.19842 7.954039 31.11689 -0 0 1.963019 12.82104 14.81214 -4.195135
-894.0833 105.3602 -444.4225 8.468344 2.125168 99.89955 2.357944 13.67263 -3.115079 -0 20.18991 -0 -13.46346 -8.280713 2.040146 0.8343525 -16.7362 -7.099007 -0 16.789 -0 -0.02311104 -1.258248 17.1997 -0.456963 -1.985094 6.910121 -0.9954182 13.08039 -3.261659 0.1539279 21.898 6.779641 6.60061 -14.0099 3.737198 3.617814 -24.03318 12.28241 81.84837 25.9799 -7.02054 -0 0 23.67224 -24.64623 13.15875 11.98977 5.690576 -22.43131 -8.037762 -96.19842 7.954039 31.11689 -0 0 1.963019 12.82104 14.81214 -4.195135
-888.6501 105.3565 -446.652 8.48705 2.048654 99.38588 2.357944 13.67263 -3.115079 -0 20.18991 -0 -13.46346 -8.280713 2.040146 0.8343525 -16.7362 -7.099007 -0 16.789 -0 -0.02311104 -1.258248 17.1997 -0.456963 -1.985094 6.910121 -0.9954182 13.08039 -3.261659 0.1539279 21.898 6.779641 6.60061 -14.0099 3.737198 3.617814 -24.03318 12.28241 81.84837 25.9799 -7.02054 -0 0 23.67224 -24.64623 13.15875 11.98977 5.690576 -22.43131 -8.037762 -96.19842 7.954039 31.11689 -0 0 1.963019 12.82104 14.81214 -4.195135
-883.197 105.3528 -448.8322 8.505068 1.971975 98.87226 2.357944 13.67263 -3.115079 -0 20.18991 -0 -13.46346 -8.280713 2.040146 0.8343525 -16.7362 -7.099007 -0 16.789 -0 -0.02311104 -1.258248 17.1997 -0.456963 -1.985094 6.910121 -0.9954182 13.08039 -3.261659 0.1539279 21.898 6.779641 6.60061 -14.0099 3.737198 3.617814 -24.03318 12.28241 81.84837 25.9799 -7.02054 -0 0 23.67224 -24.64623 13.15875 11.98977 5.690576 -22.43131 -8.037762 -96.19842 7.954039 31.11689 -0 0 1.963019 12.82104 14.81214 -4.195135
-877.7244 105.349 -450.9629 8.522396 1.895138 98.35868 2.357944 13.67263 -3.115079 -0 20.18991 -0 -13.46346 -8.280713 2.040146 0.8343525 -16.7362 -7.099007 -0 16.789 -0 -0.02311104 -1.258248 17.1997 -0.456963 -1.985094 6.910121 -0.9954182 13.08039 -3.261659 0.1539279 21.898 6.779641 6.60061 -14.0099 3.737198 3.617814 -24.03318 12.28241 81.84837 25.9799 -7.02054 -0 0 23.67224 -24.64623 13.15875 11.98977 5.690576 -22.43131 -8.037762 -96.19842 7.954039 31.11689 -0 0 1.963019 12.82104 14.81214 -4.195135
